<?xml version="1.0" encoding="iso-8859-1"?>
<!-- Generator: Adobe Illustrator 21.1.0, SVG Export Plug-In . SVG Version: 6.00 Build 0)  -->
<svg version="1.1" id="Layer_1" xmlns="http://www.w3.org/2000/svg" xmlns:xlink="http://www.w3.org/1999/xlink" x="0px" y="0px"
	 viewBox="0 0 100 100" style="enable-background:new 0 0 100 100;" xml:space="preserve">
<g style="opacity:0.91;">
	<g>
		<path style="fill:#E74C3C;" d="M2.723,35.783c0-10.73,0-21.383,0-32.107c31.411,0,62.799,0,94.277,0c0,0.288,0,0.533,0,0.779
			c0,30.566,0,61.132,0,91.698c0,0.831-0.001,0.833-0.805,0.833c-10.203,0-20.405,0-30.608,0c-0.227,0-0.453,0-0.742,0
			c0-13.515,0-26.973,0-40.579c-0.252,0.228-0.402,0.353-0.54,0.491c-13.141,13.139-26.283,26.277-39.41,39.429
			c-0.483,0.484-0.963,0.675-1.642,0.672c-6.557-0.023-13.115-0.014-19.672-0.014c-0.267,0-0.534,0-0.857,0
			c-0.014-0.287-0.035-0.51-0.035-0.733c-0.002-7.5,0.004-15-0.013-22.5c-0.001-0.527,0.158-0.889,0.528-1.259
			c12.067-12.05,24.124-24.11,36.182-36.169c0.144-0.144,0.282-0.296,0.517-0.542C27.442,35.783,15.1,35.783,2.723,35.783z
			 M70.947,39.826c0,17.179,0,34.314,0,51.426c6.662,0,13.271,0,19.88,0c0-17.164,0-34.283,0-51.426
			C84.183,39.826,77.59,39.826,70.947,39.826z M90.821,30.903c0-7.129,0-14.194,0-21.263c-6.663,0-13.269,0-19.88,0
			c0,7.112,0,14.176,0,21.263C77.58,30.903,84.171,30.903,90.821,30.903z"/>
	</g>
</g>
</svg>
